<svg preserveAspectRatio="none" width="100%" height="100%" overflow="visible" style="display: block;" viewBox="0 0 126.964 45" fill="none" xmlns="http://www.w3.org/2000/svg">
<g id="truv">
<path d="M9.98689 44.1692C6.86535 44.1692 4.40944 43.2692 2.61915 41.4692C0.874759 39.6692 0.00255841 37.2231 0.00255841 34.1308V0H7.85231V33.7846C7.85231 34.8462 8.17365 35.7231 8.81632 36.4154C9.45898 37.0615 10.3082 37.3846 11.364 37.3846H18.7318V44.1692H9.98689ZM0 15.6462V8.86154H18.8006V15.6462H0Z" fill="var(--fill-0, white)"/>
<path d="M25.9693 44.1692V18.9C25.9693 15.7615 26.8415 13.3154 28.5859 11.5615C30.3762 9.76154 32.832 8.86154 35.9536 8.86154H44.423V15.6462H37.3996C36.2979 15.6462 35.4257 15.9692 34.783 16.6154C34.1863 17.2615 33.8879 18.1385 33.8879 19.2462V44.1692H25.9693Z" fill="var(--fill-0, white)"/>
<path d="M66.7156 45C63.3187 45 60.3578 44.3308 57.833 42.9923C55.3082 41.6077 53.3573 39.7154 51.9801 37.3154C50.603 34.9154 49.9144 32.2154 49.9144 29.2154V8.86154H57.833V29.1462C57.833 30.9462 58.2232 32.5385 59.0036 33.9231C59.8299 35.2615 60.9086 36.3231 62.2399 37.1077C63.617 37.8462 65.1089 38.2154 66.7156 38.2154C68.3223 38.2154 69.7912 37.8462 71.1225 37.1077C72.4996 36.3231 73.5784 35.2615 74.3587 33.9231C75.185 32.5385 75.5982 30.9462 75.5982 29.1462V8.86154H83.5168V29.2154C83.5168 32.2154 82.8053 34.9154 81.3822 37.3154C80.0051 39.7154 78.0541 41.6077 75.5293 42.9923C73.0505 44.3308 70.1126 45 66.7156 45Z" fill="var(--fill-0, white)"/>
<path d="M108.097 45C106.261 45 104.608 44.4923 103.14 43.4769C101.716 42.4615 100.684 41.1 100.041 39.3923L89.2992 8.86154H97.9064L107.064 36.2769C107.202 36.6 107.363 36.8308 107.546 36.9692C107.73 37.1077 107.937 37.1769 108.166 37.1769C108.396 37.1769 108.602 37.1077 108.786 36.9692C109.015 36.8308 109.176 36.6 109.268 36.2769L118.495 8.86154H126.964L116.154 39.3923C115.557 41.1 114.524 42.4615 113.055 43.4769C111.586 44.4923 109.933 45 108.097 45Z" fill="var(--fill-0, white)"/>
</g>
</svg>
