<svg preserveAspectRatio="none" width="100%" height="100%" overflow="visible" style="display: block;" viewBox="0 0 556.483 951.286" fill="none" xmlns="http://www.w3.org/2000/svg">
<path id="fix" d="M155.497 890.116C155.497 890.116 192.066 947.354 208.602 950.852C225.137 954.35 457.588 935.589 483.663 934.317C509.739 933.044 535.178 920.643 539.948 914.919C544.718 909.195 552.349 894.568 553.939 888.844C555.529 883.12 556.483 859.589 556.483 859.589L385.404 90.0524C385.404 90.0524 378.09 68.1111 371.413 58.8894C364.735 49.6677 356.149 38.22 343.43 30.9062C330.71 23.5924 317.672 20.4125 317.672 20.4125L55.3304 0.0611302C55.3304 0.0611302 26.0753 -1.52884 14.3096 11.5088C2.54397 24.5464 0 57.6174 0 57.6174L155.497 890.116Z" fill="var(--fill-0, black)"/>
</svg>
